<svg width="40" height="40" viewBox="0 0 40 40" fill="none" xmlns="http://www.w3.org/2000/svg">
<mask id="mask0_1_1129" style="mask-type:alpha" maskUnits="userSpaceOnUse" x="0" y="0" width="40" height="40">
<rect width="40" height="40" fill="#D9D9D9"/>
</mask>
<g mask="url(#mask0_1_1129)">
<path d="M20 36.0897C16.1389 36.0897 12.93 35.6539 10.3733 34.7822C7.81666 33.9103 6.53833 32.7109 6.53833 31.1839C6.53833 30.4234 6.93291 29.7081 7.72208 29.0381C8.51125 28.3681 9.5925 27.8409 10.9658 27.4564L12.1592 28.5247C10.7219 28.9506 9.66083 29.3906 8.97583 29.8447C8.29111 30.2989 7.94875 30.7488 7.94875 31.1943C7.94875 32.0107 9.04055 32.7832 11.2242 33.5118C13.4081 34.2404 16.3333 34.6047 20 34.6047C23.6667 34.6047 26.5919 34.2404 28.7758 33.5118C30.9594 32.7832 32.0512 32.0107 32.0512 31.1943C32.0512 30.7488 31.7089 30.2989 31.0242 29.8447C30.3392 29.3906 29.2781 28.9506 27.8408 28.5247L29.0621 27.4564C30.4351 27.8409 31.5117 28.3681 32.2917 29.0381C33.0717 29.7081 33.4617 30.4234 33.4617 31.1839C33.4617 32.7109 32.1833 33.9103 29.6267 34.7822C27.07 35.6539 23.8611 36.0897 20 36.0897ZM20 30.3143C19.6131 30.3143 19.2433 30.2311 18.8908 30.0647C18.5383 29.8984 18.2029 29.6952 17.8846 29.4552L7.08125 20.0206C6.91375 19.8617 6.78139 19.6806 6.68416 19.4772C6.58694 19.2736 6.53833 19.0722 6.53833 18.8731V15.6381C6.53833 15.4153 6.57527 15.2042 6.64916 15.0047C6.72277 14.805 6.84111 14.6279 7.00416 14.4735L17.8717 4.38683C18.1603 4.11489 18.4869 3.91294 18.8517 3.781C19.2164 3.64933 19.5985 3.5835 19.9979 3.5835C20.3974 3.5835 20.7801 3.64933 21.1462 3.781C21.5124 3.91294 21.8397 4.11489 22.1283 4.38683L32.9958 14.4735C33.1589 14.6279 33.2772 14.805 33.3508 15.0047C33.4247 15.2042 33.4617 15.4153 33.4617 15.6381V18.8731C33.4617 19.0722 33.4131 19.2736 33.3158 19.4772C33.2186 19.6806 33.0862 19.8617 32.9187 20.0206L22.1154 29.4552C21.7971 29.6952 21.4617 29.8984 21.1092 30.0647C20.7567 30.2311 20.3869 30.3143 20 30.3143ZM19.9592 24.3635C20.3703 24.3635 20.7539 24.2913 21.11 24.1468C21.4658 24.0024 21.8061 23.7886 22.1308 23.5056L31.5662 15.0343L21.1729 5.48725C21.0226 5.31864 20.8514 5.19419 20.6592 5.11391C20.4669 5.03391 20.2597 4.996 20.0375 5.00016C19.8294 5.00433 19.6189 5.04655 19.4058 5.12683C19.1931 5.20683 19.0001 5.32697 18.8271 5.48725L8.37166 15.1027L17.7642 23.5547C18.0803 23.8467 18.4222 24.0545 18.79 24.1781C19.1575 24.3017 19.5472 24.3635 19.9592 24.3635ZM14.8733 16.996C15.3575 16.996 15.7664 16.8267 16.1 16.4881C16.4336 16.1495 16.6004 15.7349 16.6004 15.2443C16.6004 14.7602 16.4332 14.3513 16.0987 14.0177C15.7643 13.6841 15.3549 13.5172 14.8704 13.5172C14.386 13.5172 13.9769 13.6853 13.6433 14.0214C13.31 14.3575 13.1433 14.7691 13.1433 15.256C13.1433 15.7429 13.3106 16.1546 13.645 16.491C13.9794 16.8277 14.3889 16.996 14.8733 16.996ZM17.735 19.526C18.8311 19.9554 19.9599 20.0528 21.1212 19.8181C22.2826 19.5834 23.3099 19.0657 24.2029 18.2652C25.0149 17.5452 25.5614 16.6672 25.8425 15.6314C26.1233 14.5959 26.0946 13.5642 25.7562 12.5364L17.735 19.526ZM20.0012 11.9147C20.4857 11.9147 20.8947 11.7467 21.2283 11.4106C21.5619 11.0745 21.7287 10.6629 21.7287 10.176C21.7287 9.68905 21.5615 9.27739 21.2271 8.941C20.8926 8.60433 20.4832 8.436 19.9987 8.436C19.5143 8.436 19.1053 8.6053 18.7717 8.94391C18.4381 9.28253 18.2712 9.69697 18.2712 10.1872C18.2712 10.6717 18.4385 11.0807 18.7729 11.4143C19.1074 11.7479 19.5168 11.9147 20.0012 11.9147Z" fill="#848484"/>
</g>
</svg>
