<svg width="40" height="40" viewBox="0 0 40 40" fill="none" xmlns="http://www.w3.org/2000/svg">
<mask id="mask0_1_1123" style="mask-type:alpha" maskUnits="userSpaceOnUse" x="0" y="0" width="40" height="40">
<rect width="40" height="40" fill="#D9D9D9"/>
</mask>
<g mask="url(#mask0_1_1123)">
<path d="M12.5642 35C11.3881 35 10.3889 34.5889 9.56671 33.7667C8.74449 32.9444 8.33337 31.9453 8.33337 30.7692V9.87167C8.33337 8.53111 8.80699 7.38403 9.75421 6.43042C10.7014 5.47681 11.8517 5 13.205 5H31.6667V27.9488C30.9017 27.9488 30.2617 28.2278 29.7467 28.7858C29.2317 29.3439 28.9742 30.005 28.9742 30.7692C28.9742 31.5569 29.2317 32.224 29.7467 32.7704C30.2617 33.3165 30.9017 33.5896 31.6667 33.5896V35H12.5642ZM12.5567 33.5896H28.6359C28.2925 33.2179 28.0281 32.7904 27.8425 32.3071C27.657 31.8237 27.5642 31.3111 27.5642 30.7692C27.5642 30.2294 27.6564 29.7174 27.8409 29.2329C28.0253 28.7485 28.2924 28.3204 28.6421 27.9488H12.5571C11.7699 27.9488 11.1042 28.2224 10.56 28.7696C10.0159 29.3168 9.74379 29.9836 9.74379 30.77C9.74379 31.5614 10.0159 32.2292 10.56 32.7733C11.1042 33.3175 11.7698 33.5896 12.5567 33.5896ZM9.74379 27.6163C10.1155 27.2668 10.5368 26.9997 11.008 26.815C11.4791 26.6306 11.9978 26.5383 12.5642 26.5383H30.2563V6.41042H13.205C12.2423 6.41042 11.4246 6.74805 10.7521 7.42333C10.0799 8.09889 9.74379 8.91736 9.74379 9.87875V27.6163ZM15.0867 21.2821H16.455L17.4325 18.6442H22.5259L23.5034 21.2821H24.8396L20.7438 10.3846H19.205L15.0867 21.2821ZM17.888 17.3846L19.9809 11.7821H20.0096L22.0705 17.3846H17.888Z" fill="#848484"/>
</g>
</svg>
