<svg width="40" height="40" viewBox="0 0 40 40" fill="none" xmlns="http://www.w3.org/2000/svg">
<mask id="mask0_1_1063" style="mask-type:alpha" maskUnits="userSpaceOnUse" x="0" y="0" width="40" height="40">
<rect width="40" height="40" fill="#D9D9D9"/>
</mask>
<g mask="url(#mask0_1_1063)">
<path d="M21.44 33.3332V16.579C21.0469 15.9193 20.5063 15.3879 19.8179 14.9848C19.1296 14.5818 18.3679 14.3803 17.5329 14.3803C16.6596 14.3803 15.8653 14.6094 15.15 15.0678C14.4347 15.5261 13.8713 16.1203 13.4596 16.8503H12.0833C12.0833 14.0147 13.0606 11.6086 15.015 9.63192C16.9697 7.65498 19.35 6.6665 22.1558 6.6665C24.9697 6.6665 27.3531 7.65387 29.3058 9.62859C31.2586 11.6033 32.235 14.0105 32.235 16.8503H30.8592C30.4475 16.1203 29.8857 15.5261 29.1737 15.0678C28.4618 14.6094 27.6717 14.3803 26.8033 14.3803C25.9778 14.3803 25.2208 14.5818 24.5325 14.9848C23.8442 15.3879 23.2835 15.9214 22.8504 16.5853V33.3332H21.44ZM21.9025 14.9036H22.4325C22.9911 14.3033 23.6426 13.8309 24.3871 13.4865C25.1313 13.1421 25.9399 12.9698 26.8129 12.9698C27.5007 12.9698 28.1481 13.0822 28.755 13.3069C29.3619 13.5316 29.9201 13.8498 30.4296 14.2615C29.8932 12.4659 28.8686 10.9862 27.3558 9.82234C25.8431 8.65873 24.1056 8.07692 22.1433 8.07692C20.1808 8.07692 18.4432 8.66762 16.9304 9.849C15.4176 11.0307 14.4038 12.5443 13.8888 14.3898C14.3982 13.964 14.9564 13.6208 15.5633 13.3603C16.1703 13.1 16.8176 12.9698 17.5054 12.9698C18.3785 12.9698 19.1907 13.1421 19.9421 13.4865C20.6935 13.8309 21.3469 14.3033 21.9025 14.9036ZM26.8888 33.3332V24.4057H35V33.3332H33.5896V25.8161H28.2992V33.3332H26.8888ZM7.8525 33.3332V27.8823C7.485 27.7932 7.17236 27.6105 6.91458 27.3344C6.65681 27.058 6.50583 26.7225 6.46167 26.3278L5 12.8761H5.15875C5.53403 12.8761 5.855 13.0018 6.12167 13.2532C6.38806 13.5048 6.55153 13.8068 6.61208 14.159L7.78542 24.4057H14.9658C15.6486 24.4057 16.2253 24.6411 16.6958 25.1119C17.1664 25.5825 17.4017 26.1591 17.4017 26.8419V27.9636H16.1133V33.3332H14.9275V27.9636H9.07042V33.3332H7.8525Z" fill="#848484"/>
</g>
</svg>
