<svg width="40" height="40" viewBox="0 0 40 40" fill="none" xmlns="http://www.w3.org/2000/svg">
<mask id="mask0_1_1111" style="mask-type:alpha" maskUnits="userSpaceOnUse" x="0" y="0" width="40" height="40">
<rect width="40" height="40" fill="#D9D9D9"/>
</mask>
<g mask="url(#mask0_1_1111)">
<path d="M8.30879 32.2436C8.10796 32.2436 7.94046 32.1761 7.80629 32.0411C7.67185 31.9064 7.60462 31.7387 7.60462 31.5382V29.8374H6.53837C5.63393 29.8374 4.87365 29.5293 4.25754 28.9132C3.64143 28.2971 3.33337 27.5368 3.33337 26.6324V17.739C3.33337 16.6665 3.67171 15.8778 4.34837 15.3728C5.02532 14.8678 5.72824 14.6153 6.45712 14.6153V11.8415C6.45712 10.9471 6.75421 10.2028 7.34837 9.60861C7.94226 9.01472 8.68657 8.71777 9.58129 8.71777H30.4255C31.3199 8.71777 32.0631 9.01472 32.655 9.60861C33.247 10.2028 33.543 10.9471 33.543 11.8415V14.6153C34.3632 14.6153 35.0889 14.8837 35.72 15.4207C36.3512 15.9579 36.6667 16.7307 36.6667 17.739V26.6324C36.6667 27.5368 36.3587 28.2971 35.7425 28.9132C35.1264 29.5293 34.3662 29.8374 33.4617 29.8374H32.3955V31.5382C32.3955 31.7387 32.3389 31.9064 32.2259 32.0411C32.1131 32.1761 31.9563 32.2436 31.7555 32.2436C31.5546 32.2436 31.3867 32.1761 31.2517 32.0411C31.1167 31.9064 31.0492 31.7387 31.0492 31.5382V29.8374H9.01504V31.5382C9.01504 31.7399 8.94754 31.9078 8.81254 32.0419C8.67754 32.1764 8.50962 32.2436 8.30879 32.2436ZM6.53837 28.4274H33.4617C33.9609 28.4274 34.3848 28.2531 34.7334 27.9044C35.082 27.5556 35.2563 27.1315 35.2563 26.6324V17.7465C35.2563 17.2565 35.092 16.8472 34.7634 16.5186C34.4348 16.19 34.0244 16.0257 33.5321 16.0257C33.0399 16.0257 32.633 16.19 32.3113 16.5186C31.9899 16.8472 31.8292 17.254 31.8292 17.739V23.7819H8.17088V17.739C8.17088 17.254 8.01018 16.8472 7.68879 16.5186C7.36712 16.19 6.96018 16.0257 6.46796 16.0257C5.97574 16.0257 5.56532 16.19 5.23671 16.5186C4.9081 16.8472 4.74379 17.2565 4.74379 17.7465V26.6324C4.74379 27.1315 4.9181 27.5556 5.26671 27.9044C5.61532 28.2531 6.03921 28.4274 6.53837 28.4274ZM9.58129 22.3715H30.4188V17.739C30.4188 17.1074 30.5816 16.5461 30.9071 16.0553C31.2327 15.5647 31.6412 15.1972 32.1325 14.9528V11.8415C32.1325 11.3424 31.9682 10.9319 31.6396 10.6103C31.3107 10.2889 30.9062 10.1282 30.4259 10.1282H9.57421C9.09393 10.1282 8.68935 10.2889 8.36046 10.6103C8.03185 10.9319 7.86754 11.3424 7.86754 11.8415V14.9528C8.35893 15.1972 8.7674 15.5647 9.09296 16.0553C9.41851 16.5461 9.58129 17.1074 9.58129 17.739V22.3715Z" fill="#848484"/>
</g>
</svg>
