<svg width="40" height="40" viewBox="0 0 40 40" fill="none" xmlns="http://www.w3.org/2000/svg">
<mask id="mask0_1_1141" style="mask-type:alpha" maskUnits="userSpaceOnUse" x="0" y="0" width="40" height="40">
<rect width="40" height="40" fill="#D9D9D9"/>
</mask>
<g mask="url(#mask0_1_1141)">
<path d="M20 17.8526C18.9203 16.9879 17.9157 16.1797 16.9862 15.428C16.0568 14.6763 15.2519 13.9468 14.5716 13.2393C13.8914 12.532 13.36 11.8215 12.9775 11.1076C12.595 10.3934 12.4037 9.63675 12.4037 8.83758C12.4037 7.81619 12.7678 6.94258 13.4958 6.21675C14.2241 5.4912 15.1112 5.12842 16.1571 5.12842C16.8735 5.12842 17.5519 5.30731 18.1925 5.66508C18.8328 6.02314 19.4353 6.56008 20 7.27592C20.5647 6.58147 21.1779 6.04994 21.8396 5.68133C22.5012 5.31272 23.1797 5.12842 23.875 5.12842C24.9208 5.12842 25.8025 5.49925 26.52 6.24092C27.2375 6.98259 27.5962 7.88022 27.5962 8.93383C27.5962 9.70439 27.405 10.4413 27.0225 11.1447C26.64 11.848 26.1086 12.5498 25.4283 13.2501C24.748 13.9504 23.9468 14.6763 23.0246 15.428C22.1021 16.1797 21.0939 16.9879 20 17.8526ZM20 16.0063C22.2408 14.2727 23.8319 12.873 24.7733 11.8072C25.715 10.7413 26.1858 9.78425 26.1858 8.93592C26.1858 8.26564 25.9618 7.69856 25.5137 7.23467C25.0657 6.7705 24.5176 6.53842 23.8696 6.53842C23.2951 6.53842 22.7897 6.7212 22.3533 7.08675C21.9169 7.45203 21.4622 7.86397 20.9891 8.32258L20.0033 9.25758L19.0171 8.30758C18.554 7.85897 18.1019 7.45203 17.6608 7.08675C17.2194 6.7212 16.7068 6.53842 16.1229 6.53842C15.4768 6.53842 14.9305 6.76161 14.4841 7.208C14.0375 7.65411 13.8141 8.20869 13.8141 8.87175C13.8141 9.74869 14.2796 10.7219 15.2104 11.7913C16.1412 12.8608 17.7378 14.2658 20 16.0063ZM6.18581 35.0001V29.5493C5.81831 29.4601 5.50567 29.2774 5.2479 29.0013C4.99012 28.7249 4.83915 28.3894 4.79498 27.9947L3.33331 14.543H3.49206C3.86734 14.543 4.18831 14.6687 4.45498 14.9201C4.72137 15.1718 4.88484 15.4737 4.9454 15.8259L6.10873 26.0726H13.2929C13.9754 26.0726 14.5519 26.308 15.0225 26.7788C15.4933 27.2494 15.7287 27.8261 15.7287 28.5088V29.6305H14.44V35.0001H13.2541V29.6305H7.40373V35.0001H6.18581ZM19.295 35.0001V21.8422H9.65581C9.65581 21.4511 9.79692 21.1181 10.0791 20.8434C10.3611 20.569 10.6901 20.4318 11.0662 20.4318H28.9337C29.3098 20.4318 29.6389 20.5727 29.9208 20.8547C30.203 21.1369 30.3441 21.4661 30.3441 21.8422H20.705V35.0001H19.295ZM25.6516 35.0001V29.6305H24.2779V28.5088C24.2779 27.8261 24.5132 27.2494 24.9837 26.7788C25.4543 26.308 26.031 26.0726 26.7137 26.0726H33.8979L35.0962 15.8259C35.1485 15.4709 35.3107 15.1683 35.5829 14.918C35.8554 14.668 36.1743 14.543 36.5396 14.543H36.6987L35.2083 27.9947C35.1514 28.3611 35.0037 28.6841 34.7654 28.9638C34.5273 29.2438 34.2423 29.4283 33.9104 29.5172V35.0001H32.6987V29.6305H26.81V35.0001H25.6516Z" fill="#848484"/>
</g>
</svg>
