<svg width="40" height="40" viewBox="0 0 40 40" fill="none" xmlns="http://www.w3.org/2000/svg">
<mask id="mask0_1_959" style="mask-type:alpha" maskUnits="userSpaceOnUse" x="0" y="0" width="40" height="40">
<rect width="40" height="40" fill="#D9D9D9"/>
</mask>
<g mask="url(#mask0_1_959)">
<path d="M32.3333 15.6249L31.3613 14.6528L32.3654 13.6345C32.579 13.4209 32.6858 13.1805 32.6858 12.9133C32.6858 12.6463 32.579 12.406 32.3654 12.1924L27.8075 7.6345C27.5939 7.42089 27.3536 7.31409 27.0867 7.31409C26.8194 7.31409 26.579 7.42089 26.3654 7.6345L25.3471 8.63867L24.3333 7.62492L25.2629 6.65367C25.7521 6.1645 26.3514 5.92687 27.0608 5.94076C27.7703 5.95464 28.3697 6.20617 28.8592 6.69534L33.3046 11.1408C33.7938 11.6302 34.0383 12.2227 34.0383 12.9183C34.0383 13.6138 33.7938 14.2062 33.3046 14.6953L32.3333 15.6249ZM14.7371 33.2628C14.2479 33.752 13.6556 33.9966 12.96 33.9966C12.2644 33.9966 11.6719 33.752 11.1825 33.2628L6.69 28.7703C6.21917 28.2926 5.98375 27.7141 5.98375 27.0349C5.98375 26.3555 6.21917 25.7805 6.69 25.3099L7.66667 24.3333L8.68042 25.3195L7.69459 26.3237C7.4807 26.5373 7.37375 26.7777 7.37375 27.0449C7.37375 27.3119 7.4807 27.5521 7.69459 27.7658L12.2342 32.3053C12.4478 32.5192 12.6881 32.6262 12.955 32.6262C13.2222 32.6262 13.4626 32.5192 13.6763 32.3053L14.6804 31.3195L15.6667 32.3333L14.7371 33.2628ZM30.9583 22.2733L33.2029 20.0287C33.4165 19.8151 33.5233 19.5694 33.5233 19.2916C33.5233 19.0138 33.4165 18.7681 33.2029 18.5545L21.4454 6.797C21.2318 6.58339 20.9861 6.47659 20.7083 6.47659C20.4306 6.47659 20.1849 6.58339 19.9713 6.797L17.7267 9.04159C17.5128 9.2552 17.4058 9.49562 17.4058 9.76284C17.4058 10.0298 17.5128 10.2702 17.7267 10.4841L29.5158 22.2733C29.7297 22.4871 29.9701 22.5941 30.2371 22.5941C30.5043 22.5941 30.7447 22.4871 30.9583 22.2733ZM20.0288 33.2028L22.3013 30.9487C22.5149 30.7351 22.6217 30.4946 22.6217 30.2274C22.6217 29.9605 22.5149 29.7201 22.3013 29.5062L10.4938 17.6987C10.2799 17.4851 10.0394 17.3783 9.7725 17.3783C9.50528 17.3783 9.26486 17.4851 9.05125 17.6987L6.79709 19.9712C6.58348 20.1848 6.47667 20.4305 6.47667 20.7083C6.47667 20.986 6.58348 21.2317 6.79709 21.4453L18.5546 33.2028C18.7682 33.4165 19.0139 33.5233 19.2917 33.5233C19.5694 33.5233 19.8151 33.4165 20.0288 33.2028ZM19.0525 24.2391L24.2488 19.0245L20.9754 15.7512L15.7608 20.9474L19.0525 24.2391ZM21.0042 34.207C20.5347 34.6778 19.9642 34.9133 19.2925 34.9133C18.6211 34.9133 18.0571 34.6778 17.6004 34.207L5.79292 22.3995C5.32209 21.9442 5.08667 21.3808 5.08667 20.7091C5.08667 20.0377 5.32209 19.4666 5.79292 18.9958L8.0375 16.7124C8.51528 16.2416 9.09375 16.0062 9.77292 16.0062C10.4521 16.0062 11.0271 16.2416 11.4979 16.7124L14.7467 19.9616L19.9713 14.737L16.7221 11.4699C16.2513 11.0146 16.0158 10.4459 16.0158 9.76367C16.0158 9.08145 16.2513 8.50492 16.7221 8.03409L18.9988 5.75117C19.4765 5.28034 20.0551 5.04492 20.7346 5.04492C21.4138 5.04492 21.9888 5.28034 22.4596 5.75117L34.2488 17.5403C34.7196 18.0181 34.955 18.5967 34.955 19.2762C34.955 19.9553 34.7196 20.5303 34.2488 21.0012L31.9658 23.2778C31.4961 23.7487 30.9201 23.9841 30.2379 23.9841C29.5557 23.9841 28.9864 23.7487 28.53 23.2778L25.2629 20.0287L20.0383 25.2533L23.2875 28.502C23.7583 28.9798 23.9938 29.5583 23.9938 30.2374C23.9938 30.9166 23.7583 31.4916 23.2875 31.9624L21.0042 34.207Z" fill="#848484"/>
</g>
</svg>
