<svg width="40" height="40" viewBox="0 0 40 40" fill="none" xmlns="http://www.w3.org/2000/svg">
<mask id="mask0_1_1135" style="mask-type:alpha" maskUnits="userSpaceOnUse" x="0" y="0" width="40" height="40">
<rect width="40" height="40" fill="#D9D9D9"/>
</mask>
<g mask="url(#mask0_1_1135)">
<path d="M30.0021 9.5923C29.2379 9.5923 28.591 9.32813 28.0613 8.7998C27.5318 8.27174 27.2671 7.62563 27.2671 6.86146C27.2671 6.09702 27.5311 5.45008 28.0592 4.92063C28.5872 4.39119 29.2335 4.12646 29.9979 4.12646C30.7621 4.12646 31.409 4.39049 31.9388 4.91855C32.4682 5.4466 32.7329 6.09271 32.7329 6.85688C32.7329 7.62132 32.4689 8.26827 31.9408 8.79771C31.4128 9.32744 30.7665 9.5923 30.0021 9.5923ZM27.6283 35.8335V22.6756C27.6283 21.7906 27.4301 20.9942 27.0338 20.2865C26.6374 19.5784 26.0189 19.0251 25.1783 18.6265L27.0063 13.8302C27.2285 13.2213 27.6169 12.7299 28.1717 12.356C28.7261 11.9822 29.3356 11.7952 30 11.7952C30.6644 11.7952 31.2739 11.9767 31.8283 12.3398C32.3831 12.7031 32.7715 13.1999 32.9938 13.8302L37.5 25.5131H32.9488V35.8335H27.6283ZM20.7763 19.0385C20.1554 19.0385 19.6376 18.8263 19.2229 18.4019C18.8079 17.9774 18.6004 17.4619 18.6004 16.8552C18.6004 16.2488 18.8092 15.7347 19.2267 15.3127C19.6439 14.8908 20.1629 14.6798 20.7838 14.6798C21.3901 14.6798 21.9043 14.892 22.3263 15.3165C22.7485 15.7409 22.9596 16.2565 22.9596 16.8631C22.9596 17.4695 22.7472 17.9837 22.3225 18.4056C21.8981 18.8276 21.3826 19.0385 20.7763 19.0385ZM9.16875 9.5923C8.40459 9.5923 7.75764 9.32813 7.22792 8.7998C6.69848 8.27174 6.43375 7.62563 6.43375 6.86146C6.43375 6.09702 6.69778 5.45008 7.22584 4.92063C7.75389 4.39119 8.40014 4.12646 9.16459 4.12646C9.92875 4.12646 10.5757 4.39049 11.1054 4.91855C11.6349 5.4466 11.8996 6.09271 11.8996 6.85688C11.8996 7.62132 11.6356 8.26827 11.1075 8.79771C10.5794 9.32744 9.9332 9.5923 9.16875 9.5923ZM6.34625 35.8335V24.744H3.46167V14.8077C3.46167 14.1491 3.70292 13.5784 4.18542 13.0956C4.66792 12.6131 5.23861 12.3719 5.8975 12.3719H12.4358C13.0947 12.3719 13.6654 12.6131 14.1479 13.0956C14.6304 13.5784 14.8717 14.1491 14.8717 14.8077V24.744H11.9871V35.8335H6.34625ZM18.7821 35.8335V29.8719H16.9871V22.6756C16.9871 22.164 17.1663 21.729 17.5246 21.3706C17.8826 21.0126 18.3175 20.8335 18.8292 20.8335H22.7096C23.221 20.8335 23.6558 21.0126 24.0142 21.3706C24.3722 21.729 24.5513 22.164 24.5513 22.6756V29.8719H22.7563V35.8335H18.7821Z" fill="#848484"/>
</g>
</svg>
