<svg width="40" height="40" viewBox="0 0 40 40" fill="none" xmlns="http://www.w3.org/2000/svg">
<mask id="mask0_1_1081" style="mask-type:alpha" maskUnits="userSpaceOnUse" x="0" y="0" width="40" height="40">
<rect width="40" height="40" fill="#D9D9D9"/>
</mask>
<g mask="url(#mask0_1_1081)">
<path d="M9.295 32.5V25.705H7.5V24.295H9.295V19.0384H7.5V17.6284H9.295V11.8909L13.3333 7.85254L16.6667 11.1859L20.0417 7.85254L23.375 11.1859L26.7083 7.85254L30.7467 11.8909V17.6284H32.5V19.0384H30.7467V24.295H32.5V25.705H30.7467V32.5H9.295ZM10.705 17.6284H15.9617V12.4667L13.3333 9.83879L10.705 12.4667V17.6284ZM17.3717 17.6284H22.6283V12.4667L20 9.83879L17.3717 12.4667V17.6284ZM24.08 17.6284H29.295V12.4667L26.6667 9.83879L24.08 12.4571V17.6284ZM10.705 24.295H15.9617V19.0384H10.705V24.295ZM17.3717 24.295H22.6283V19.0384H17.3717V24.295ZM24.08 24.295H29.295V19.0384H24.08V24.295ZM10.705 31.0896H15.9617V25.705H10.705V31.0896ZM17.3717 31.0896H22.6283V25.705H17.3717V31.0896ZM24.08 31.0896H29.295V25.705H24.08V31.0896Z" fill="#848484"/>
</g>
</svg>
