<svg width="40" height="40" viewBox="0 0 40 40" fill="none" xmlns="http://www.w3.org/2000/svg">
<mask id="mask0_1_1075" style="mask-type:alpha" maskUnits="userSpaceOnUse" x="0" y="0" width="40" height="40">
<rect width="40" height="40" fill="#D9D9D9"/>
</mask>
<g mask="url(#mask0_1_1075)">
<path d="M17.5383 30.0854C17.9039 30.3768 18.289 30.5896 18.6938 30.7238C19.0988 30.8582 19.5071 30.9254 19.9187 30.9254C20.7471 30.9254 21.4944 30.6626 22.1608 30.1371C22.8272 29.6118 23.2181 28.861 23.3333 27.8846C23.4722 26.5704 23.0581 25.5931 22.0908 24.9525C21.1236 24.3117 20.3975 23.4799 19.9125 22.4571C19.7736 22.8546 19.7031 23.2179 19.7008 23.5471C19.6986 23.876 19.7414 24.2392 19.8292 24.6367C19.9125 25.1361 20.0118 25.5931 20.1271 26.0075C20.2426 26.4219 20.2565 26.8767 20.1687 27.3717C20.0299 27.8989 19.7232 28.4274 19.2488 28.9571C18.7746 29.4871 18.2044 29.8632 17.5383 30.0854ZM5 35V5H35V35H5ZM20 32.1796C21.4158 32.1796 22.6167 31.6867 23.6025 30.7008C24.5883 29.715 25.0813 28.5142 25.0813 27.0983C25.0813 26.4075 24.9413 25.8263 24.6613 25.3546C24.3813 24.8832 23.9956 24.4879 23.5042 24.1688C22.4172 23.4232 21.5218 22.5979 20.8179 21.6929C20.1138 20.7879 19.5761 19.9187 19.205 19.0854C17.8975 20.0576 16.8551 21.1921 16.0779 22.4888C15.301 23.7854 14.9125 25.2921 14.9125 27.0087C14.9125 28.2771 15.4203 29.456 16.4358 30.5454C17.4517 31.6349 18.6397 32.1796 20 32.1796ZM6.41042 33.5896H11.1538V32.1796H16.2029C15.376 31.5721 14.7192 30.7971 14.2325 29.8546C13.7456 28.9124 13.5021 27.9637 13.5021 27.0087C13.5021 25.8549 13.6651 24.7833 13.9913 23.7942C14.3176 22.8053 14.7688 21.8892 15.3446 21.0458C15.9204 20.2025 16.6008 19.4321 17.3858 18.7346C18.1706 18.0368 19.0206 17.406 19.9358 16.8421C20.2883 18.1068 20.8185 19.2256 21.5263 20.1983C22.2338 21.1708 23.2029 22.1275 24.4338 23.0683C25.141 23.6381 25.6607 24.2583 25.9929 24.9292C26.3251 25.5997 26.4912 26.3228 26.4912 27.0983C26.4912 28.0336 26.2933 28.9511 25.8975 29.8508C25.5014 30.7508 24.866 31.5271 23.9912 32.1796H28.8463V33.5896H33.5896V6.41042H6.41042V33.5896Z" fill="#848484"/>
</g>
</svg>
