<svg width="40" height="40" viewBox="0 0 40 40" fill="none" xmlns="http://www.w3.org/2000/svg">
<mask id="mask0_1_1087" style="mask-type:alpha" maskUnits="userSpaceOnUse" x="0" y="0" width="40" height="40">
<rect width="40" height="40" fill="#D9D9D9"/>
</mask>
<g mask="url(#mask0_1_1087)">
<path d="M5.89746 30.7693V29.3593H14.1345C13.6387 27.3071 12.6414 25.5258 11.1425 24.0156C9.64357 22.5053 7.89524 21.4981 5.89746 20.9939C6.36746 20.8764 6.83052 20.7882 7.28663 20.7293C7.74302 20.6704 8.2201 20.641 8.71788 20.641C11.8632 20.641 14.5298 21.5428 16.7179 23.3464C18.9059 25.1497 20 27.624 20 30.7693H5.89746ZM21.4104 30.7693C21.4104 30.201 21.3676 29.6503 21.282 29.1172C21.1965 28.5842 21.0708 28.0433 20.905 27.4947C21.8066 25.5497 23.1504 23.9212 24.9362 22.6093C26.7223 21.2971 28.8376 20.641 31.282 20.641C31.7798 20.641 32.2569 20.6704 32.7133 20.7293C33.1694 20.7882 33.6325 20.8764 34.1025 20.9939C32.1047 21.4981 30.3554 22.511 28.8545 24.0326C27.354 25.5543 26.3576 27.3299 25.8654 29.3593H34.1025V30.7693H21.4104ZM20.4187 26.0847C20.1026 24.1892 20.1489 22.4235 20.5575 20.7876C20.9664 19.1515 21.6519 17.7158 22.6141 16.4806C23.5764 15.245 24.7714 14.2508 26.1991 13.4981C27.6269 12.7453 29.1898 12.3197 30.8879 12.2214C29.1187 13.3431 27.7237 14.6878 26.7029 16.2556C25.6823 17.8231 25.0307 19.4128 24.7479 21.0247C23.8462 21.5011 22.9643 22.2331 22.102 23.2206C21.2398 24.2083 20.6787 25.1631 20.4187 26.0847ZM18.8962 23.7651C18.489 23.2401 17.9719 22.7056 17.345 22.1614C16.7183 21.6172 16.1069 21.2019 15.5108 20.9156C15.6019 20.645 15.6677 20.3097 15.7083 19.9097C15.7489 19.51 15.7691 19.1385 15.7691 18.7951C15.7691 17.0046 15.4839 15.3143 14.9133 13.7243C14.3427 12.1346 13.5426 10.6794 12.5129 9.35889C14.2279 10.0492 15.769 11.1758 17.1362 12.7389C18.5034 14.3019 19.4291 16.2253 19.9133 18.5089C19.5772 19.2794 19.3258 20.1403 19.1591 21.0914C18.9925 22.0428 18.9048 22.934 18.8962 23.7651Z" fill="#848484"/>
</g>
</svg>
