<svg width="40" height="40" viewBox="0 0 40 40" fill="none" xmlns="http://www.w3.org/2000/svg">
<mask id="mask0_1_1069" style="mask-type:alpha" maskUnits="userSpaceOnUse" x="0" y="0" width="40" height="40">
<rect width="40" height="40" fill="#D9D9D9"/>
</mask>
<g mask="url(#mask0_1_1069)">
<path d="M9.10246 35C8.43829 35 7.86635 34.76 7.38663 34.28C6.90663 33.8003 6.66663 33.2283 6.66663 32.5642V13.9742C6.66663 13.31 6.90663 12.7381 7.38663 12.2583C7.86635 11.7783 8.43829 11.5383 9.10246 11.5383H13.4616C13.4616 9.71722 14.0872 8.17222 15.3383 6.90333C16.5891 5.63444 18.1252 5 19.9466 5C21.7827 5 23.3404 5.63236 24.6195 6.89708C25.8987 8.16153 26.5383 9.70861 26.5383 11.5383H30.8975C31.5616 11.5383 32.1336 11.7783 32.6133 12.2583C33.0933 12.7381 33.3333 13.31 33.3333 13.9742V32.5642C33.3333 33.2283 33.0933 33.8003 32.6133 34.28C32.1336 34.76 31.5616 35 30.8975 35H9.10246ZM9.10246 33.5896H30.8975C31.1538 33.5896 31.3888 33.4828 31.6025 33.2692C31.8161 33.0556 31.9229 32.8206 31.9229 32.5642V13.9742C31.9229 13.7178 31.8161 13.4828 31.6025 13.2692C31.3888 13.0556 31.1538 12.9488 30.8975 12.9488H9.10246C8.84607 12.9488 8.61107 13.0556 8.39746 13.2692C8.18385 13.4828 8.07704 13.7178 8.07704 13.9742V32.5642C8.07704 32.8206 8.18385 33.0556 8.39746 33.2692C8.61107 33.4828 8.84607 33.5896 9.10246 33.5896ZM20 21.2821C21.8255 21.2821 23.3841 20.6363 24.6758 19.3446C25.9675 18.0529 26.6133 16.4943 26.6133 14.6687H25.2029C25.2029 16.1076 24.6911 17.3344 23.6675 18.3492C22.6436 19.3642 21.4202 19.8717 19.9975 19.8717C18.5747 19.8717 17.3558 19.3642 16.3408 18.3492C15.3258 17.3344 14.8183 16.1076 14.8183 14.6687H13.4079C13.4079 16.4943 14.0502 18.0529 15.335 19.3446C16.6194 20.6363 18.1744 21.2821 20 21.2821ZM14.8716 11.5383H25.1283C25.1283 10.1139 24.6297 8.90306 23.6325 7.90583C22.6352 6.90889 21.4244 6.41042 20 6.41042C18.5755 6.41042 17.3647 6.90889 16.3675 7.90583C15.3702 8.90306 14.8716 10.1139 14.8716 11.5383Z" fill="#848484"/>
</g>
</svg>
