<svg width="40" height="40" viewBox="0 0 40 40" fill="none" xmlns="http://www.w3.org/2000/svg">
<mask id="mask0_1_1093" style="mask-type:alpha" maskUnits="userSpaceOnUse" x="0" y="0" width="40" height="40">
<rect width="40" height="40" fill="#D9D9D9"/>
</mask>
<g mask="url(#mask0_1_1093)">
<path d="M7.41998 21.1068C6.96609 21.1068 6.57748 20.9476 6.25414 20.6293C5.93081 20.311 5.76914 19.925 5.76914 19.4714C5.76914 19.0175 5.92831 18.6289 6.24664 18.3055C6.56525 17.9822 6.95137 17.8205 7.40498 17.8205C7.85859 17.8205 8.24706 17.9797 8.57039 18.298C8.89373 18.6166 9.05539 19.0028 9.05539 19.4564C9.05539 19.91 8.89623 20.2985 8.57789 20.6218C8.25956 20.9451 7.87359 21.1068 7.41998 21.1068ZM6.15789 35.8335V29.3422H4.87164V23.263C4.87164 23.065 4.94317 22.9047 5.08623 22.7822C5.22928 22.6597 5.40664 22.5984 5.61831 22.5984H9.20373C9.41512 22.5984 9.59289 22.6597 9.73706 22.7822C9.88095 22.9047 9.95289 23.065 9.95289 23.263V29.3422H8.67748V34.423H24.4979V23.6776H20.5921C19.1259 23.6776 17.8847 23.1873 16.8683 22.2068C15.8522 21.2262 15.3441 20.0562 15.3441 18.6968C15.3441 17.5437 15.7182 16.4751 16.4662 15.491C17.2146 14.5071 18.2066 13.7651 19.4425 13.2651C19.4816 11.4668 20.0982 10.0243 21.2921 8.93762C22.4862 7.85095 23.8009 7.30762 25.2362 7.30762C26.6712 7.30762 27.9847 7.85095 29.1766 8.93762C30.3686 10.0243 30.9864 11.4668 31.03 13.2651C32.2658 13.7651 33.2578 14.5071 34.0058 15.491C34.7541 16.4751 35.1283 17.5437 35.1283 18.6968C35.1283 20.0562 34.6198 21.2262 33.6029 22.2068C32.5862 23.1873 31.3432 23.6776 29.8737 23.6776H25.9079V34.423H34.3762V35.8335H6.15789ZM20.5921 22.2672H29.8737C30.9082 22.2672 31.8075 21.9266 32.5716 21.2455C33.3358 20.5644 33.7179 19.7169 33.7179 18.703C33.7179 17.7639 33.414 16.9353 32.8062 16.2172C32.1982 15.4991 31.4565 14.9639 30.5812 14.6114L29.5962 14.2222L29.6196 13.3272C29.6354 12.0514 29.2141 10.9643 28.3558 10.066C27.4978 9.16734 26.4555 8.71803 25.2291 8.71803C24.0028 8.71803 22.9628 9.16734 22.1091 10.066C21.2558 10.9643 20.8369 12.0514 20.8525 13.3272L20.8762 14.2222L19.9125 14.6114C19.0228 14.9639 18.274 15.4991 17.6662 16.2172C17.0582 16.9353 16.7541 17.7639 16.7541 18.703C16.7541 19.7169 17.1353 20.5644 17.8975 21.2455C18.6594 21.9266 19.5576 22.2672 20.5921 22.2672Z" fill="#848484"/>
</g>
</svg>
