<svg width="40" height="40" viewBox="0 0 40 40" fill="none" xmlns="http://www.w3.org/2000/svg">
<mask id="mask0_1_1153" style="mask-type:alpha" maskUnits="userSpaceOnUse" x="0" y="0" width="40" height="40">
<rect width="40" height="40" fill="#D9D9D9"/>
</mask>
<g mask="url(#mask0_1_1153)">
<path d="M26.737 28.2117C27.7315 28.2117 28.5784 28.5614 29.2779 29.2609C29.9773 29.9603 30.327 30.8071 30.327 31.8013C30.327 32.7957 29.9773 33.6427 29.2779 34.3421C28.5784 35.0413 27.7315 35.3909 26.737 35.3909C25.8968 35.3909 25.1398 35.1274 24.4662 34.6005C23.7929 34.0735 23.3961 33.3868 23.2758 32.5405H10.7116L9.10245 35.0663C8.98912 35.2357 8.8369 35.3413 8.64579 35.383C8.45468 35.4246 8.28357 35.396 8.13245 35.2971C7.94857 35.1796 7.83482 35.0252 7.7912 34.8338C7.74732 34.6427 7.78204 34.4624 7.89537 34.293L15.487 22.6238C13.6523 22.0163 12.1484 21.0521 10.9754 19.7313C9.80232 18.4105 9.01704 16.8512 8.61954 15.0534H28.06C27.6766 16.8512 26.897 18.4093 25.7212 19.728C24.5451 21.0468 23.0533 22.003 21.2458 22.5963L24.4691 27.7009C24.2361 27.8448 24.0293 27.9841 23.8487 28.1188C23.6681 28.2532 23.4938 28.4131 23.3258 28.5984L19.7937 22.9188C19.6229 22.9743 19.405 23.0021 19.14 23.0021H17.5991C17.3558 23.0021 17.1465 22.9743 16.9712 22.9188L11.6262 31.1305H23.2758C23.3961 30.2657 23.7883 29.5631 24.4525 29.0225C25.1166 28.482 25.8781 28.2117 26.737 28.2117ZM26.737 33.9809C27.3618 33.9809 27.8812 33.7738 28.2954 33.3596C28.7095 32.9455 28.9166 32.426 28.9166 31.8013C28.9166 31.191 28.7095 30.6752 28.2954 30.2538C27.8812 29.8324 27.3618 29.6217 26.737 29.6217C26.1268 29.6217 25.6109 29.8324 25.1895 30.2538C24.7681 30.6752 24.5575 31.191 24.5575 31.8013C24.5575 32.426 24.7681 32.9455 25.1895 33.3596C25.6109 33.7738 26.1268 33.9809 26.737 33.9809ZM18.3333 21.6238C20.0783 21.6238 21.6522 21.147 23.055 20.1934C24.4577 19.2398 25.4979 17.9966 26.1754 16.4638H10.5041C11.1752 17.9966 12.2116 19.2398 13.6133 20.1934C15.015 21.147 16.5883 21.6238 18.3333 21.6238ZM14.795 12.1388C14.9125 11.3805 14.8916 10.7213 14.7325 10.1613C14.5733 9.60157 14.2226 8.97837 13.6804 8.29171C13.102 7.5567 12.729 6.8774 12.5612 6.25379C12.3937 5.63018 12.3865 4.91309 12.5395 4.10254H13.2445C13.1356 4.91087 13.1597 5.58768 13.3166 6.13296C13.4738 6.67823 13.812 7.28059 14.3312 7.94004C14.889 8.67087 15.2569 9.35018 15.435 9.97795C15.613 10.606 15.6347 11.3263 15.5 12.1388H14.795ZM18.6325 12.1388C18.7272 11.3177 18.6965 10.6305 18.5404 10.0771C18.3845 9.52351 18.047 8.92837 17.5279 8.29171C16.9615 7.56309 16.5898 6.88587 16.4129 6.26004C16.2359 5.63448 16.224 4.91532 16.377 4.10254H17.082C16.9645 4.83837 16.9844 5.48921 17.1416 6.05504C17.2986 6.62087 17.6409 7.2492 18.1687 7.94004C18.7243 8.66448 19.087 9.34171 19.257 9.97171C19.4268 10.6017 19.4536 11.3241 19.3375 12.1388H18.6325ZM22.5279 12.1388C22.6268 11.3218 22.5983 10.6356 22.4425 10.08C22.2863 9.52448 21.9487 8.92837 21.4295 8.29171C20.8448 7.54448 20.4675 6.86157 20.2975 6.24296C20.1277 5.62434 20.1194 4.91087 20.2725 4.10254H20.9775C20.86 4.83837 20.8808 5.48921 21.04 6.05504C21.1991 6.62087 21.5426 7.2492 22.0704 7.94004C22.6401 8.66032 23.0063 9.33545 23.1691 9.96545C23.3319 10.5955 23.3531 11.3199 23.2329 12.1388H22.5279Z" fill="#848484"/>
</g>
</svg>
