<svg width="40" height="40" viewBox="0 0 40 40" fill="none" xmlns="http://www.w3.org/2000/svg">
<mask id="mask0_1_1105" style="mask-type:alpha" maskUnits="userSpaceOnUse" x="0" y="0" width="40" height="40">
<rect width="40" height="40" fill="#D9D9D9"/>
</mask>
<g mask="url(#mask0_1_1105)">
<path d="M7.36877 19.2465C6.47044 19.2465 5.71224 18.9364 5.09419 18.3161C4.47585 17.6961 4.16669 16.9369 4.16669 16.0386C4.16669 15.1403 4.47683 14.3819 5.0971 13.7636C5.71738 13.1455 6.47669 12.8365 7.37502 12.8365C8.27308 12.8365 9.03127 13.1466 9.6496 13.7669C10.2679 14.3869 10.5771 15.1461 10.5771 16.0444C10.5771 16.9428 10.267 17.7011 9.64669 18.3194C9.02641 18.9375 8.2671 19.2465 7.36877 19.2465ZM14.9338 12.4519C14.0421 12.4519 13.2871 12.1418 12.6688 11.5215C12.0504 10.9012 11.7413 10.1419 11.7413 9.24359C11.7413 8.34525 12.0514 7.58706 12.6717 6.969C13.2917 6.35067 14.0507 6.0415 14.9488 6.0415C15.8335 6.0415 16.5885 6.35164 17.2138 6.97192C17.839 7.5922 18.1517 8.3515 18.1517 9.24984C18.1517 10.1479 17.8384 10.9061 17.2117 11.5244C16.5847 12.1428 15.8254 12.4519 14.9338 12.4519ZM25.0621 12.4519C24.1702 12.4519 23.4152 12.1418 22.7971 11.5215C22.1788 10.9012 21.8696 10.1419 21.8696 9.24359C21.8696 8.34525 22.1796 7.58706 22.7996 6.969C23.4199 6.35067 24.179 6.0415 25.0771 6.0415C25.9615 6.0415 26.7166 6.35164 27.3421 6.97192C27.9674 7.5922 28.28 8.3515 28.28 9.24984C28.28 10.1479 27.9665 10.9061 27.3396 11.5244C26.7129 12.1428 25.9538 12.4519 25.0621 12.4519ZM32.625 19.2465C31.727 19.2465 30.9688 18.9364 30.3504 18.3161C29.7321 17.6961 29.4229 16.9369 29.4229 16.0386C29.4229 15.1403 29.7331 14.3819 30.3534 13.7636C30.9736 13.1455 31.7329 12.8365 32.6313 12.8365C33.5296 12.8365 34.2878 13.1466 34.9059 13.7669C35.5242 14.3869 35.8334 15.1461 35.8334 16.0444C35.8334 16.9428 35.5232 17.7011 34.9029 18.3194C34.2827 18.9375 33.5234 19.2465 32.625 19.2465ZM11.0834 36.0415C10.0742 36.0415 9.24599 35.6576 8.59877 34.8898C7.95183 34.1223 7.62835 33.2157 7.62835 32.1698C7.62835 30.9048 8.06613 29.8154 8.94169 28.9015C9.81752 27.9876 10.6753 27.0664 11.515 26.1378C12.2622 25.3364 12.925 24.4882 13.5034 23.5932C14.0817 22.6984 14.7088 21.8265 15.3846 20.9773C15.9902 20.1996 16.6711 19.503 17.4275 18.8878C18.1842 18.2722 19.0417 17.9644 20 17.9644C20.982 17.9644 21.8625 18.2693 22.6417 18.879C23.4206 19.4887 24.102 20.1954 24.6859 20.999C25.3739 21.8337 25.9977 22.7015 26.5571 23.6023C27.1165 24.5034 27.7592 25.3486 28.485 26.1378C29.3247 27.0664 30.1825 27.9876 31.0584 28.9015C31.9339 29.8154 32.3717 30.9048 32.3717 32.1698C32.3717 33.2157 32.0482 34.1223 31.4013 34.8898C30.754 35.6576 29.9259 36.0415 28.9167 36.0415C27.4167 36.0415 25.9306 35.9165 24.4584 35.6665C22.9861 35.4165 21.5 35.2915 20 35.2915C18.5 35.2915 17.0139 35.4165 15.5417 35.6665C14.0695 35.9165 12.5834 36.0415 11.0834 36.0415Z" fill="#848484"/>
</g>
</svg>
