<svg width="40" height="40" viewBox="0 0 40 40" fill="none" xmlns="http://www.w3.org/2000/svg">
<mask id="mask0_1_1099" style="mask-type:alpha" maskUnits="userSpaceOnUse" x="0" y="0" width="40" height="40">
<rect width="40" height="40" fill="#D9D9D9"/>
</mask>
<g mask="url(#mask0_1_1099)">
<path d="M31.2241 19.2371C32.3686 19.2371 33.3345 18.8456 34.122 18.0625C34.9095 17.2792 35.3033 16.3196 35.3033 15.1837C35.3033 14.4032 35.1441 13.774 34.8258 13.2962C34.5074 12.8182 34.1411 12.3735 33.7266 11.9621V8.88667C33.7266 8.18306 33.4826 7.59445 32.9945 7.12083C32.5065 6.64722 31.9148 6.41042 31.2195 6.41042C30.5331 6.41042 29.9543 6.64722 29.4829 7.12083C29.0115 7.59445 28.7758 8.18306 28.7758 8.88667V11.9733C28.408 12.3158 28.0444 12.7158 27.6849 13.1733C27.3252 13.6306 27.1454 14.2981 27.1454 15.1758C27.1454 16.3139 27.5416 17.2753 28.3341 18.06C29.1269 18.8447 30.0902 19.2371 31.2241 19.2371ZM8.07702 23.8463H14.9466L12.4016 19.8129C12.1894 19.4563 11.9155 19.1632 11.5799 18.9338C11.2444 18.7043 10.8566 18.5896 10.4166 18.5896H8.07702V23.8463ZM8.07702 31.9229H22.0191C21.3916 31.9229 20.8011 31.7731 20.2474 31.4733C19.6936 31.1733 19.2517 30.7535 18.922 30.2138L15.8245 25.2563H8.07702V31.9229ZM3.36536 33.3333V31.9229H6.66661V13.8463H8.07702V17.1796H10.4166C11.0441 17.1796 11.6348 17.3294 12.1887 17.6292C12.7423 17.9292 13.184 18.349 13.5137 18.8888L20.0374 29.295C20.2474 29.6483 20.5202 29.9396 20.8558 30.1688C21.1916 30.3982 21.5795 30.5129 22.0195 30.5129H25.7691V31.9229H30.5191V20.6238C29.1516 20.2776 28.0124 19.6649 27.1016 18.7854C26.1905 17.9057 25.7349 16.7054 25.7349 15.1846C25.7349 14.3421 25.8881 13.6194 26.1945 13.0167C26.5006 12.4136 26.924 11.8379 27.4645 11.2896C27.4326 10.7832 27.408 10.3529 27.3908 9.99875C27.3738 9.64458 27.3654 9.27389 27.3654 8.88667C27.3654 7.80556 27.7417 6.8875 28.4945 6.1325C29.2473 5.3775 30.1615 5 31.237 5C32.3126 5 33.2315 5.3775 33.9937 6.1325C34.7556 6.8875 35.1366 7.80556 35.1366 8.88667C35.1366 9.14306 35.1245 9.53986 35.1004 10.0771C35.0762 10.614 35.048 10.9968 35.0158 11.2254C35.5494 11.7951 35.9658 12.3868 36.2649 13.0004C36.5641 13.614 36.7137 14.3421 36.7137 15.1846C36.7137 16.7054 36.2617 17.9057 35.3579 18.7854C34.454 19.6649 33.3112 20.2776 31.9295 20.6238L31.9229 31.9229H36.6604V33.3333H3.36536Z" fill="#848484"/>
</g>
</svg>
