<svg width="40" height="40" viewBox="0 0 40 40" fill="none" xmlns="http://www.w3.org/2000/svg">
<mask id="mask0_1_1159" style="mask-type:alpha" maskUnits="userSpaceOnUse" x="0" y="0" width="40" height="40">
<rect width="40" height="40" fill="#D9D9D9"/>
</mask>
<g mask="url(#mask0_1_1159)">
<path d="M19.8717 9.87167C19.8717 10.5433 19.6443 11.1065 19.1896 11.5612C18.7349 12.0162 18.1717 12.2437 17.5 12.2437C17.1603 12.2437 16.8384 12.1769 16.5342 12.0433C16.23 11.9097 15.9666 11.714 15.7438 11.4563C14.9219 11.7554 14.2112 12.2124 13.6117 12.8271C13.0123 13.4415 12.6321 14.1658 12.4713 15H33.205L31.763 24.1667H25.3292V22.7563H30.5867C30.7512 21.7093 30.9166 20.6517 31.083 19.5833C31.2491 18.515 31.4216 17.4574 31.6005 16.4104H8.39963C8.57852 17.4574 8.75102 18.515 8.91713 19.5833C9.08352 20.6517 9.24893 21.7093 9.41338 22.7563H14.6709V24.1667H8.23713L6.79504 15H11.0575C11.2328 13.8739 11.6895 12.8835 12.4275 12.0288C13.1653 11.174 14.0763 10.5633 15.1605 10.1967C15.1391 10.1539 15.1284 10.1004 15.1284 10.0362V9.87625C15.1248 9.20875 15.3523 8.64583 15.8109 8.1875C16.2695 7.72917 16.8325 7.5 17.5 7.5C18.1717 7.5 18.7349 7.72736 19.1896 8.18208C19.6443 8.63681 19.8717 9.2 19.8717 9.87167ZM16.108 31.9229H23.8921L24.8292 22.5321C24.8575 22.2329 24.7685 21.9711 24.5621 21.7467C24.3555 21.5225 24.1025 21.4104 23.8034 21.4104H16.1967C15.8975 21.4104 15.6446 21.5225 15.438 21.7467C15.2316 21.9711 15.1425 22.2329 15.1709 22.5321L16.108 31.9229ZM14.8396 33.3333L13.8055 22.6708C13.7457 21.9722 13.9563 21.3524 14.4371 20.8113C14.9177 20.2704 15.5074 20 16.2063 20H23.7938C24.4927 20 25.0824 20.2704 25.563 20.8113C26.0438 21.3524 26.2543 21.9722 26.1946 22.6708L25.1605 33.3333H14.8396Z" fill="#848484"/>
</g>
</svg>
