<svg width="40" height="40" viewBox="0 0 40 40" fill="none" xmlns="http://www.w3.org/2000/svg">
<mask id="mask0_1_1147" style="mask-type:alpha" maskUnits="userSpaceOnUse" x="0" y="0" width="40" height="40">
<rect width="40" height="40" fill="#D9D9D9"/>
</mask>
<g mask="url(#mask0_1_1147)">
<path d="M4.16663 34.1026V32.5813C5.00718 32.4474 5.69843 32.1585 6.24038 31.7147C6.78232 31.271 7.6601 31.0492 8.87371 31.0492C10.0876 31.0492 11.0425 31.3338 11.7383 31.903C12.4341 32.4719 13.3504 32.7563 14.487 32.7563C15.6382 32.7563 16.5413 32.4719 17.1966 31.903C17.8519 31.3338 18.7863 31.0492 20 31.0492C21.2136 31.0492 22.179 31.3338 22.8962 31.903C23.6134 32.4719 24.5405 32.7563 25.6775 32.7563C26.8283 32.7563 27.7254 32.4719 28.3687 31.903C29.0118 31.3338 29.933 31.0492 31.1325 31.0492C32.3461 31.0492 33.2229 31.271 33.7629 31.7147C34.3026 32.1585 34.9927 32.4474 35.8333 32.5813V34.1026C35.0377 33.9473 34.3218 33.6358 33.6854 33.168C33.049 32.6999 32.198 32.4659 31.1325 32.4659C30.0811 32.4659 29.2261 32.7494 28.5675 33.3163C27.9086 33.8833 26.9452 34.1667 25.6775 34.1667C24.4097 34.1667 23.4093 33.8833 22.6762 33.3163C21.9434 32.7494 21.0513 32.4659 20 32.4659C18.9486 32.4659 18.0761 32.7494 17.3825 33.3163C16.6886 33.8833 15.7077 34.1667 14.44 34.1667C13.1722 34.1667 12.1904 33.8833 11.4945 33.3163C10.7987 32.7494 9.9251 32.4659 8.87371 32.4659C7.8226 32.4659 6.97413 32.6999 6.32829 33.168C5.68274 33.6358 4.96218 33.9473 4.16663 34.1026ZM4.16663 26.5088V25.0342C5.00718 24.9003 5.69843 24.6126 6.24038 24.1709C6.78232 23.7295 7.6601 23.5088 8.87371 23.5088C10.0876 23.5088 11.0316 23.7844 11.7058 24.3355C12.38 24.8869 13.2913 25.1626 14.44 25.1626C15.5911 25.1626 16.502 24.8869 17.1729 24.3355C17.844 23.7844 18.7863 23.5088 20 23.5088C21.2136 23.5088 22.1569 23.7844 22.83 24.3355C23.503 24.8869 24.4151 25.1626 25.5662 25.1626C26.7173 25.1626 27.6329 24.8869 28.3129 24.3355C28.9932 23.7844 29.933 23.5088 31.1325 23.5088C32.3461 23.5088 33.2229 23.7295 33.7629 24.1709C34.3026 24.6126 34.9927 24.9003 35.8333 25.0342V26.5088C35.0377 26.3535 34.3218 26.0419 33.6854 25.5738C33.049 25.1058 32.198 24.8717 31.1325 24.8717C30.0811 24.8717 29.224 25.1552 28.5612 25.7221C27.8987 26.2891 26.9375 26.5726 25.6775 26.5726C24.4216 26.5726 23.4243 26.2891 22.6854 25.7221C21.9465 25.1552 21.0513 24.8717 20 24.8717C18.9444 24.8717 18.0768 25.1552 17.397 25.7221C16.717 26.2891 15.747 26.5726 14.487 26.5726C13.227 26.5726 12.2394 26.2891 11.5241 25.7221C10.8086 25.1552 9.9251 24.8717 8.87371 24.8717C7.8226 24.8717 6.97413 25.1058 6.32829 25.5738C5.68274 26.0419 4.96218 26.3535 4.16663 26.5088ZM13.1366 18.453L18.5308 13.0588L15.7916 10.3196C14.8922 9.41993 13.9898 8.79951 13.0845 8.4584C12.1793 8.11729 11.0193 7.91465 9.60454 7.85048V5.82715C11.319 5.89104 12.7375 6.13937 13.86 6.57215C14.9825 7.00493 16.1047 7.78215 17.2266 8.90382L26.8908 18.5684C26.7291 18.7231 26.5362 18.8391 26.312 18.9163C26.0876 18.9935 25.8497 19.0321 25.5983 19.0321C24.8461 19.0321 24.0808 18.7487 23.3025 18.1817C22.5238 17.6148 21.423 17.3313 20 17.3313C18.5769 17.3313 17.4808 17.6148 16.7116 18.1817C15.9422 18.7487 15.1743 19.0321 14.4079 19.0321C14.1295 19.0321 13.8818 18.9799 13.6645 18.8755C13.4473 18.7713 13.2713 18.6305 13.1366 18.453ZM27.3845 6.19465C28.3504 6.19465 29.1705 6.52882 29.845 7.19715C30.5194 7.86548 30.8566 8.68159 30.8566 9.64548C30.8566 10.6113 30.5194 11.4315 29.845 12.1059C29.1705 12.7803 28.3504 13.1176 27.3845 13.1176C26.4187 13.1176 25.6022 12.7803 24.935 12.1059C24.2675 11.4315 23.9337 10.6113 23.9337 9.64548C23.9337 8.68159 24.2675 7.86548 24.935 7.19715C25.6022 6.52882 26.4187 6.19465 27.3845 6.19465Z" fill="#848484"/>
</g>
</svg>
