<svg width="128" height="128" viewBox="0 0 128 128" fill="none" xmlns="http://www.w3.org/2000/svg">
<path fill-rule="evenodd" clip-rule="evenodd" d="M65.488 7.80273C34.9045 7.80273 10.0341 32.4823 10.0341 62.8275C10.0341 74.8612 13.9545 86.0145 20.5958 95.0886L13.671 115.519L34.977 108.749C43.7305 114.493 54.2194 117.846 65.488 117.846C96.059 117.846 120.936 93.1646 120.936 62.8275C120.936 32.4823 96.059 7.80273 65.488 7.80273Z" fill="url(#paint0_linear_41_475)"/>
<path fill-rule="evenodd" clip-rule="evenodd" d="M128 62.3537C128 96.7839 99.8687 124.702 65.1662 124.702C54.1457 124.702 43.7918 121.888 34.791 116.944L0 128L11.3407 94.5491C5.61779 85.1517 2.32733 74.1312 2.32733 62.3537C2.32733 27.9163 30.4587 0 65.1662 0C99.8682 0 128 27.9163 128 62.3537ZM65.1662 9.93084C36.0287 9.93084 12.3342 33.4438 12.3342 62.3541C12.3342 73.8191 16.0691 84.4448 22.3965 93.0901L15.799 112.555L36.0976 106.105C44.437 111.577 54.43 114.772 65.1657 114.772C94.2911 114.772 117.992 91.2569 117.992 62.3541C117.993 33.4434 94.2916 9.93084 65.1662 9.93084ZM96.8961 76.7147C96.5067 76.0767 95.4791 75.6944 93.945 74.9298C92.4038 74.167 84.8266 70.4656 83.4168 69.959C82.007 69.4506 80.9723 69.1944 79.952 70.7218C78.9245 72.2505 75.9716 75.6944 75.0702 76.7147C74.1741 77.7369 73.2781 77.8612 71.7368 77.097C70.1937 76.3342 65.2283 74.7147 59.3476 69.515C54.7716 65.4581 51.6802 60.4587 50.777 58.93C49.8827 57.403 50.688 56.5763 51.4508 55.8135C52.1461 55.1253 52.9938 54.0285 53.7638 53.1396C54.5356 52.2436 54.7913 51.6037 55.3051 50.5833C55.8188 49.563 55.5631 48.6741 55.1736 47.9095C54.7913 47.1467 51.7088 39.625 50.4233 36.5621C49.1467 33.5078 47.8616 33.6218 46.9584 33.6218C46.0624 33.6218 44.3999 33.8883 44.3999 33.8883C44.3999 33.8883 41.312 34.2706 39.9027 35.7993C38.4928 37.3263 34.5143 41.0276 34.5143 48.5422C34.5143 56.0621 40.0288 63.3334 40.7987 64.3466C41.57 65.3687 51.4512 81.305 67.1116 87.424C82.7721 93.5413 82.772 91.5005 85.597 91.2426C88.4167 90.9939 94.7083 87.5483 95.9934 83.9784C97.2784 80.409 97.2784 77.3474 96.8961 76.7147Z" fill="white"/>
<defs>
<linearGradient id="paint0_linear_41_475" x1="65.4853" y1="7.80273" x2="65.4853" y2="117.846" gradientUnits="userSpaceOnUse">
<stop stop-color="#4AC14B"/>
<stop offset="1" stop-color="#06853A"/>
</linearGradient>
</defs>
</svg>
